<?xml version="1.0" encoding="UTF-8"?>
<svg version="1.1" xmlns="http://www.w3.org/2000/svg" width="892" height="595">
<path d="M0 0 C294.36 0 588.72 0 892 0 C892 196.35 892 392.7 892 595 C597.64 595 303.28 595 0 595 C0 398.65 0 202.3 0 0 Z " fill="#1D1D1D" transform="translate(0,0)"/>
<path d="M0 0 C30.03 0 60.06 0 91 0 C104.74856256 18.33141674 104.74856256 18.33141674 109.4375 24.875 C110.53124244 26.39453669 111.62499267 27.91406778 112.71875 29.43359375 C113.81252052 30.95571442 114.90627062 32.47784977 116 34 C122.61946309 43.20193522 129.26464843 52.38242958 136 61.5 C143.27942622 71.35407821 150.44830324 81.28574334 157.60449219 91.22949219 C163.6923875 99.68593036 169.80868741 108.11888909 176 116.5 C182.1869666 124.87522778 188.29885008 133.30232338 194.38232422 141.75292969 C197.12749671 145.56617563 199.87587553 149.37710268 202.625 153.1875 C203.15706055 153.92621338 203.68912109 154.66492676 204.23730469 155.42602539 C206.88801438 159.10057779 209.55635462 162.75998642 212.26171875 166.39453125 C212.77589355 167.08716064 213.29006836 167.77979004 213.81982422 168.4934082 C214.79255191 169.80103806 215.76925457 171.10572326 216.75048828 172.40698242 C220 176.77850917 220 176.77850917 220 179 C223.65760983 175.51625543 226.596004 171.97456276 229.5 167.8125 C230.3796432 166.56210224 231.25988114 165.31212273 232.140625 164.0625 C232.60404297 163.4025 233.06746094 162.7425 233.54492188 162.0625 C236.08652643 158.45990348 238.66795482 154.88617199 241.25 151.3125 C241.79462891 150.55815674 242.33925781 149.80381348 242.90039062 149.02661133 C247.48330057 142.69043155 252.12123879 136.39570626 256.76855469 130.10668945 C260.7135965 124.76230525 264.61938631 119.39131488 268.5 114 C272.96020953 107.80345586 277.46259635 101.64023977 282 95.5 C288.73553059 86.38251634 295.37863637 77.20059231 302 68 C309.19753739 57.99879619 316.43429581 48.0301613 323.75830078 38.12109375 C327.81370167 32.62806398 331.824359 27.10451546 335.8125 21.5625 C349.62618748 2.37381252 349.62618748 2.37381252 352 0 C381.7 0 411.4 0 442 0 C442 137.61 442 275.22 442 417 C415.93 417 389.86 417 363 417 C362.505 268.5 362.505 268.5 362 117 C351.98781362 130.0509559 351.98781362 130.0509559 342.1875 143.25 C337.2008024 150.05930445 332.1299832 156.79805439 327 163.5 C321.93346088 170.11945247 316.92564692 176.77503 312 183.5 C306.4133758 191.12740017 300.70723662 198.65644565 294.9609375 206.1640625 C290.57935674 211.89902727 286.26457042 217.67759563 282 223.5 C276.4133758 231.12740017 270.70723662 238.65644565 264.9609375 246.1640625 C260.00271387 252.65378378 255.14112399 259.20836128 250.31762695 265.79858398 C244.99740678 273.04844139 239.54497553 280.19500193 234.06445312 287.32421875 C233.41798828 288.16726563 232.77152344 289.0103125 232.10546875 289.87890625 C231.52949951 290.6272876 230.95353027 291.37566895 230.36010742 292.14672852 C228.95084483 293.95776313 228.95084483 293.95776313 228 296 C222.32964228 296.82884579 216.60155907 297.5604437 211 296 C207.04760508 292.6191656 204.85106287 288.68591625 202.31347656 284.19482422 C199.90391744 280.16844197 197.01152448 276.49122901 194.1875 272.75 C192.98087234 271.12141979 191.77645405 269.49120039 190.57421875 267.859375 C189.97786621 267.05048828 189.38151367 266.24160156 188.76708984 265.40820312 C185.98869971 261.62179247 183.24329491 257.81187719 180.5 254 C176.03984573 247.80341871 171.53750831 241.64016025 167 235.5 C161.91794922 228.6229644 156.88997203 221.70966917 151.89453125 214.76953125 C147.96607984 209.31916162 143.99294732 203.90325984 140 198.5 C135.46248989 192.35983731 130.96033424 186.19645339 126.5 180 C122.05579579 173.82805657 117.57729905 167.68300696 113.0625 161.5625 C112.48258301 160.77633301 111.90266602 159.99016602 111.30517578 159.18017578 C108.34923097 155.17584933 105.38885327 151.17483584 102.42578125 147.17578125 C101.83079834 146.37132568 101.23581543 145.56687012 100.62280273 144.73803711 C99.52365686 143.25198697 98.42311159 141.76696984 97.32055664 140.28344727 C91.4059352 132.28292684 85.74279824 124.13563084 80 116 C79.67 215.33 79.34 314.66 79 417 C52.93 417 26.86 417 0 417 C0 279.39 0 141.78 0 0 Z " fill="#FEFEFE" transform="translate(227,87)"/>
</svg>
